#!OML:ASF E:/inclinewalkrobotboard/Project1/Captureday1/Session1/subject1.ASF
:FULLY-SPECIFIED
:DEGREES
13
root 0 0 0 1.313867843923731 -3.856435443115366 1.8328584020460252
lowerback 12.16924362556276 0.8579127778225767 -0.06011738356886542
upperback -4.386210893302135 1.0952830161362817 -0.5683685017144134
thorax -11.618969961108348 0.497680922160471 -0.820208788602161
lowerneck -6.008197336887074 1.5940820323996896 4.46342454552789
upperneck 18.387656001156106 3.0994112356610426 -8.197141493938588
head 6.7430578989033245 1.134493106308737 -3.1431050092808013
rclavicle 1.9255522185171398E-15 -4.0455073222460753E-16
rhumerus 21.252881725618266 15.771652713713047 -47.63828036925598
rradius 73.64642743955542
rwrist 26.821889022612297
rhand -34.659976310728325 -57.66193210865127
rfingers 7.125020000000014
rthumb -7.8008021349588414 -87.60635288561636
lclavicle -4.354115696280154E-16 -1.0073526431861674E-15
lhumerus 22.121786385427377 -12.527347645756091 43.86666885084421
lradius 71.11280811529251
lwrist -23.55878026336191
lhand -44.622136500010306 -71.12917898058517
lfingers 7.125020000000031
lthumb -17.401704299750193 -41.83272786209113
rfemur -25.2302319151083 -2.218075035389951 17.20014761378544
rtibia 54.199881678535164
rfoot -29.69923155713845 -16.765612885749114
rtoes -18.43423359207164
lfemur -26.489758943098785 2.2900911730316738 -17.630536659617693
ltibia 53.33653757468274
lfoot -32.597637237533 -2.61369052941382
ltoes -21.00512931086473
14
root 0 0 0 1.3139274846294708 -3.85382554058424 1.8326687010026759
lowerback 12.169269034925499 0.8576808502629363 -0.05989207814026043
upperback -4.386119417148159 1.0949995200969012 -0.5683947462467555
thorax -11.618894165004154 0.497522680228245 -0.8203025305168783
lowerneck -6.01039285639 1.5942130884047547 4.463816556238209
upperneck 18.38862532086133 3.0994776050805326 -8.19727365380137
head 6.743694756249164 1.1344884347148874 -3.143219680559967
rclavicle 1.931476017100702E-15 -4.0368023582518454E-16
rhumerus 21.253413296475443 15.771912761035674 -47.63768434431219
rradius 73.64708101276868
rwrist 26.8227030220204
rhand -34.66055919643591 -57.66386486737311
rfingers 7.125020000000014
rthumb -7.801454797617927 -87.60792166618188
lclavicle -4.376673887489553E-16 -1.0196135441114383E-15
lhumerus 22.12423931092257 -12.529219966752764 43.864314968627944
lradius 71.11752191319412
lwrist -23.560453980573577
lhand -44.62165255375279 -71.13283337141031
lfingers 7.125020000000031
lthumb -17.40115723448738 -41.83479089943492
rfemur -25.231185521169195 -2.2180949970114323 17.200812592485967
rtibia 54.1963172211939
rfoot -29.69874756630427 -16.767113313605268
rtoes -18.433297744185698
lfemur -26.488914596945136 2.290786636076593 -17.627717450554147
ltibia 53.32978989330532
lfoot -32.60060567511156 -2.6131154635352827
ltoes -21.017577213243953
15
root 0 0 0 1.313855840473117 -3.8534906415533037 1.832615895925398
lowerback 12.169250182520319 0.8576463489071662 -0.059880309920503194
upperback -4.38618057658663 1.0949563808686997 -0.5683945015933117
thorax -11.618958209649119 0.4974995978818575 -0.8203048586560349
lowerneck -6.0105078583267 1.594287424670935 4.463884990352687
upperneck 18.388811731325504 3.099569056148807 -8.197328951379138
head 6.743769148173952 1.1345256818494112 -3.1432390973893085
rclavicle 1.9321549834354225E-15 -4.0317287668466717E-16
rhumerus 21.25319595759116 15.77165230876932 -47.63764165498107
rradius 73.6469670426871
rwrist 26.822809758565185
rhand -34.66073310972193 -57.66389796751081
rfingers 7.125020000000014
rthumb -7.80161697666005 -87.60806255868215
lclavicle -4.3720559461873797E-16 -1.0196017185194853E-15
lhumerus 22.124603001099416 -12.529345141588012 43.8639808547384
lradius 71.11791086580801
lwrist -23.560705571666077
lhand -44.621646260402926 -71.13322841128209
lfingers 7.125020000000031
lthumb -17.40115522626146 -41.835214238105635
rfemur -25.231133669334508 -2.2180223485961648 17.20090632778153
rtibia 54.19604095466548
rfoot -29.698933249387455 -16.767254496929404
rtoes -18.433079997491703
lfemur -26.488465438846347 2.29081287571425 -17.62735341560154
ltibia 53.32994148509446
lfoot -32.59988459698861 -2.613872056426975
ltoes -21.019732141741176
16
root 0 0 0 1.3138225017995802 -3.853414048659409 1.8326003136928044
lowerback 12.169242697700259 0.8576384767470937 -0.05987691051208022
upperback -4.386193603180169 1.0949462750980428 -0.5683918445780113
thorax -11.61896990315751 0.49749423999148645 -0.8203026940190046
lowerneck -6.010524551695655 1.5943067281691856 4.463906918372892
upperneck 18.38885318811789 3.0995940018850634 -8.197353495869258
head 6.743783918199361 1.1345354932458833 -3.1432477975300523
rclavicle 1.932114916364552E-15 -4.030955984640565E-16
rhumerus 21.25316637306026 15.771601051418946 -47.63759360743252
rradius 73.6469536514793
rwrist 26.82285877764465
rhand -34.660750781789886 -57.663952761908895
rfingers 7.125020000000014
rthumb -7.801634165070869 -87.60811343724424
lclavicle -4.3731594956360744E-16 -1.0195553638286465E-15
lhumerus 22.124624616789234 -12.529360219954667 43.86398222191674
lradius 71.1179334256392
lwrist -23.560708352002898
lhand -44.621659967232596 -71.13331348898701
lfingers 7.125020000000031
lthumb -17.401169117375503 -41.83530091936764
rfemur -25.231090450401812 -2.218032006664366 17.200923884210116
rtibia 54.19606042750411
rfoot -29.698883090549078 -16.767220953782484
rtoes -18.43309456055337
lfemur -26.48837175318173 2.2908563578446612 -17.62730662999588
ltibia 53.33014594741063
lfoot -32.59949530855474 -2.6142342154758436
ltoes -21.020118278501656
